<svg width="0" height="0" class="hidden">
  <symbol ="#000000" xmlns="http://www.w3.org/2000/svg" viewBox="0 0 56 56" id="moon--svg">
    <path d="M 31.2110 14.9453 C 31.4922 14.9453 31.6563 14.7578 31.7031 14.5000 C 32.4297 10.6094 32.4063 10.5156 36.4610 9.7187 C 36.7422 9.6719 36.9063 9.5312 36.9063 9.2500 C 36.9063 8.9453 36.7422 8.8047 36.4610 8.7578 C 32.4063 7.9375 32.4297 7.8672 31.7031 3.9765 C 31.6563 3.7187 31.4922 3.5312 31.2110 3.5312 C 30.9297 3.5312 30.7891 3.7187 30.7422 3.9765 C 29.9922 7.8672 30.0391 7.9375 25.9610 8.7578 C 25.7031 8.8047 25.5157 8.9453 25.5157 9.2500 C 25.5157 9.5312 25.7031 9.6719 25.9610 9.7187 C 30.0626 10.5156 29.9922 10.6094 30.7422 14.5000 C 30.7891 14.7578 30.9297 14.9453 31.2110 14.9453 Z M 42.4375 30.7891 C 42.8594 30.7891 43.1641 30.4844 43.2110 30.0391 C 43.9844 23.7578 44.2891 23.5703 50.6406 22.5860 C 51.1561 22.4922 51.4609 22.2578 51.4609 21.7891 C 51.4609 21.3438 51.1561 21.0625 50.7342 20.9922 C 44.3360 19.7734 43.9844 19.8203 43.2110 13.5391 C 43.1641 13.0938 42.8594 12.7891 42.4375 12.7891 C 41.9922 12.7891 41.6875 13.0938 41.6407 13.5156 C 40.8204 19.8672 40.6094 20.0781 34.1172 20.9922 C 33.6953 21.0391 33.3907 21.3438 33.3907 21.7891 C 33.3907 22.2344 33.6953 22.4922 34.1172 22.5860 C 40.6094 23.7812 40.8438 23.8047 41.6407 30.0860 C 41.6875 30.4844 41.9922 30.7891 42.4375 30.7891 Z M 24.7891 52.4688 C 33.2735 52.4688 40.0469 48.1797 43.2813 40.9609 C 43.6797 40.0938 43.6094 39.3438 43.1875 38.9453 C 42.8126 38.5938 42.1563 38.5469 41.4297 38.8047 C 39.5313 39.5547 37.3047 39.9297 34.7500 39.9297 C 24.1094 39.9297 17.3126 33.2734 17.3126 22.8906 C 17.3126 19.9375 17.8750 17.1016 18.6016 15.6485 C 19.0000 14.8281 19.0000 14.1250 18.6485 13.6797 C 18.2266 13.2109 17.4766 13.1406 16.5626 13.4922 C 9.3672 16.3281 4.5391 23.9687 4.5391 32.5469 C 4.5391 43.9609 12.9531 52.4688 24.7891 52.4688 Z"></path>
  </symbol>
  <symbol version="1.0" id="sun--svg" xmlns="http://www.w3.org/2000/svg" xmlns:xlink="http://www.w3.org/1999/xlink" enable-background="new 0 0 64 64" xml:space="preserve" viewBox="0 0 64 64">
    <g>
      <path -rule="evenodd" clip-rule="evenodd" ="#394240" d="M32,14.002c-9.941,0-18,8.059-18,18s8.059,18,18,18
		s18-8.059,18-18S41.941,14.002,32,14.002z M32,48.002c-8.837,0-16-7.164-16-16s7.163-16,16-16s16,7.164,16,16
		S40.837,48.002,32,48.002z"></path>
      <path -rule="evenodd" clip-rule="evenodd" ="#394240" d="M63,31H53c-0.553,0-1,0.447-1,1s0.447,1,1,1h10
		c0.553,0,1-0.447,1-1S63.553,31,63,31z"></path>
      <path -rule="evenodd" clip-rule="evenodd" ="#394240" d="M11.457,36.469l-3.863,1.035
		c-0.534,0.145-0.851,0.693-0.707,1.227c0.143,0.533,0.69,0.85,1.225,0.705l3.863-1.035c0.533-0.143,0.85-0.689,0.707-1.225
		C12.539,36.643,11.99,36.326,11.457,36.469z"></path>
      <path -rule="evenodd" clip-rule="evenodd" ="#394240" d="M49.32,22c0.277,0.479,0.888,0.643,1.367,0.365l8.66-5
		c0.479-0.275,0.643-0.887,0.365-1.365c-0.275-0.479-0.887-0.643-1.365-0.365l-8.66,5C49.208,20.912,49.045,21.521,49.32,22z"></path>
      <path -rule="evenodd" clip-rule="evenodd" ="#394240" d="M17.858,46.143c-0.39-0.391-1.023-0.389-1.414,0l-2.828,2.828
		c-0.391,0.391-0.39,1.025,0.001,1.414c0.39,0.391,1.022,0.391,1.413,0l2.828-2.828C18.249,47.168,18.249,46.533,17.858,46.143z"></path>
      <path -rule="evenodd" clip-rule="evenodd" ="#394240" d="M42,14.68c0.479,0.275,1.09,0.113,1.367-0.367l5-8.66
		C48.644,5.174,48.48,4.562,48,4.287c-0.478-0.277-1.088-0.113-1.365,0.365l-4.999,8.662C41.358,13.793,41.522,14.402,42,14.68z"></path>
      <path -rule="evenodd" clip-rule="evenodd" ="#394240" d="M26.824,51.318c-0.532-0.143-1.08,0.176-1.225,0.707l-1.035,3.863
		c-0.143,0.535,0.176,1.082,0.709,1.225c0.533,0.145,1.08-0.172,1.223-0.707l1.035-3.863C27.676,52.012,27.359,51.463,26.824,51.318
		z"></path>
      <path -rule="evenodd" clip-rule="evenodd" ="#394240" d="M32,12c0.554,0,1.001-0.447,1.002-1V1c0-0.553-0.447-1-1.002-1
		c-0.551,0-0.998,0.447-0.999,1l0.001,10C31.002,11.553,31.449,12,32,12z"></path>
      <path -rule="evenodd" clip-rule="evenodd" ="#394240" d="M38.402,52.025c-0.141-0.533-0.689-0.85-1.225-0.707
		c-0.533,0.143-0.848,0.691-0.707,1.225l1.035,3.863c0.144,0.535,0.693,0.85,1.227,0.707s0.849-0.689,0.705-1.225L38.402,52.025z"></path>
      <path -rule="evenodd" clip-rule="evenodd" ="#394240" d="M20.637,14.312c0.275,0.479,0.887,0.643,1.363,0.367
		c0.48-0.277,0.645-0.887,0.368-1.367l-5-8.66C17.092,4.174,16.48,4.01,16,4.287c-0.477,0.275-0.641,0.887-0.365,1.365
		L20.637,14.312z"></path>
      <path -rule="evenodd" clip-rule="evenodd" ="#394240" d="M47.558,46.141c-0.388-0.389-1.022-0.389-1.414,0
		c-0.391,0.391-0.388,1.025,0,1.414l2.828,2.828c0.392,0.393,1.025,0.389,1.415,0c0.391-0.391,0.391-1.021-0.001-1.414
		L47.558,46.141z"></path>
      <path -rule="evenodd" clip-rule="evenodd" ="#394240" d="M4.654,17.365l8.662,4.998c0.477,0.277,1.088,0.113,1.363-0.363
		c0.277-0.48,0.115-1.09-0.364-1.367l-8.661-5C5.176,15.355,4.564,15.52,4.287,16C4.013,16.477,4.176,17.088,4.654,17.365z"></path>
      <path -rule="evenodd" clip-rule="evenodd" ="#394240" d="M52.027,38.4l3.863,1.035c0.535,0.145,1.082-0.176,1.225-0.709
		c0.144-0.533-0.172-1.08-0.707-1.223l-3.863-1.035c-0.531-0.145-1.081,0.172-1.225,0.707C51.176,37.709,51.496,38.256,52.027,38.4z
		"></path>
      <path -rule="evenodd" clip-rule="evenodd" ="#394240" d="M12,32c0.001-0.555-0.445-1-0.998-1.002L1,31
		c-0.552,0-1,0.445-1,1c0.001,0.551,0.448,1,1.001,1l10.001-0.002C11.553,32.998,12.001,32.551,12,32z"></path>
      <path -rule="evenodd" clip-rule="evenodd" ="#394240" d="M52.545,27.529l3.863-1.035c0.535-0.143,0.85-0.693,0.706-1.227
		c-0.142-0.531-0.688-0.848-1.224-0.705l-3.863,1.035c-0.533,0.141-0.85,0.691-0.707,1.225
		C51.461,27.355,52.012,27.67,52.545,27.529z"></path>
      <circle -rule="evenodd" clip-rule="evenodd" ="#F9EBB2" cx="32" cy="32" r="16"></circle>
      <path -rule="evenodd" clip-rule="evenodd" ="#394240" d="M14.68,42c-0.275-0.48-0.886-0.645-1.365-0.369l-8.661,5.002
		C4.176,46.91,4.01,47.52,4.287,48c0.277,0.477,0.889,0.641,1.367,0.365l8.66-5.002C14.791,43.088,14.957,42.479,14.68,42z"></path>
      <path -rule="evenodd" clip-rule="evenodd" ="#394240" d="M46.144,17.855c0.389,0.393,1.022,0.389,1.414,0l2.828-2.828
		c0.392-0.391,0.39-1.023-0.002-1.414c-0.388-0.391-1.021-0.391-1.412,0l-2.828,2.828C45.752,16.83,45.754,17.465,46.144,17.855z"></path>
      <path -rule="evenodd" clip-rule="evenodd" ="#394240" d="M22,49.32c-0.479-0.277-1.088-0.113-1.365,0.363l-5,8.664
		c-0.275,0.477-0.115,1.088,0.365,1.365c0.479,0.273,1.09,0.109,1.367-0.367l4.998-8.662C22.641,50.207,22.48,49.596,22,49.32z"></path>
      <path -rule="evenodd" clip-rule="evenodd" ="#394240" d="M37.178,12.68c0.531,0.145,1.078-0.176,1.225-0.707l1.035-3.863
		c0.143-0.535-0.176-1.084-0.709-1.225c-0.531-0.145-1.08,0.172-1.223,0.707l-1.035,3.863C36.324,11.986,36.645,12.535,37.178,12.68
		z"></path>
      <path -rule="evenodd" clip-rule="evenodd" ="#394240" d="M32,52c-0.553-0.002-0.998,0.445-1,0.998l0.002,10.004
		C31.002,63.551,31.445,64,32,64c0.553,0,1-0.449,1.001-1l-0.003-10.002C32.998,52.447,32.555,52,32,52z"></path>
      <path -rule="evenodd" clip-rule="evenodd" ="#394240" d="M25.6,11.973c0.139,0.533,0.691,0.85,1.225,0.707
		c0.532-0.141,0.846-0.691,0.707-1.225l-1.035-3.863c-0.145-0.535-0.693-0.852-1.227-0.707c-0.531,0.143-0.85,0.689-0.705,1.225
		L25.6,11.973z"></path>
      <path -rule="evenodd" clip-rule="evenodd" ="#394240" d="M43.363,49.686C43.088,49.209,42.48,49.043,42,49.32
		c-0.479,0.275-0.641,0.885-0.367,1.365l5.004,8.66c0.275,0.479,0.883,0.645,1.363,0.367c0.479-0.277,0.642-0.889,0.367-1.367
		L43.363,49.686z"></path>
      <path -rule="evenodd" clip-rule="evenodd" ="#394240" d="M16.443,17.855c0.387,0.395,1.023,0.391,1.414,0
		c0.391-0.387,0.387-1.02,0-1.414l-2.828-2.828c-0.393-0.391-1.025-0.389-1.415,0.002c-0.39,0.389-0.392,1.021,0.001,1.412
		L16.443,17.855z"></path>
      <path -rule="evenodd" clip-rule="evenodd" ="#394240" d="M59.348,46.633l-8.663-4.998
		c-0.478-0.275-1.087-0.115-1.363,0.367c-0.278,0.477-0.112,1.086,0.364,1.363l8.664,5c0.477,0.275,1.086,0.115,1.363-0.365
		C59.988,47.52,59.824,46.91,59.348,46.633z"></path>
      <path -rule="evenodd" clip-rule="evenodd" ="#394240" d="M11.974,25.598L8.11,24.562c-0.536-0.143-1.083,0.176-1.225,0.709
		c-0.144,0.531,0.171,1.08,0.707,1.225l3.863,1.033c0.531,0.146,1.081-0.174,1.225-0.707C12.825,26.293,12.505,25.746,11.974,25.598
		z"></path>
      <path -rule="evenodd" clip-rule="evenodd" ="#394240" d="M32,20.002c-0.553,0-1,0.447-1,1s0.447,1,1,1
		c5.522,0,10,4.477,10,10c0,0.553,0.447,1,1,1s1-0.447,1-1C44,25.375,38.627,20.002,32,20.002z"></path>
    </g>
  </symbol>
</svg>