<svg width="0" height="0" class="hidden">
  <symbol fill="none" xmlns="http://www.w3.org/2000/svg" viewBox="0 0 60 60" id="zoom--svg">
    <path d="M25 42.5C34.665 42.5 42.5 34.665 42.5 25C42.5 15.335 34.665 7.5 25 7.5C15.335 7.5 7.5 15.335 7.5 25C7.5 34.665 15.335 42.5 25 42.5Z" stroke="black" stroke-width="3.75" stroke-linecap="round" stroke-linejoin="round"></path>
    <path d="M52.498 52.5L37.373 37.375" stroke="black" stroke-width="3.75" stroke-linecap="round" stroke-linejoin="round"></path>
  </symbol>
  <symbol fill="red" xmlns="http://www.w3.org/2000/svg" viewBox="0 0 15 15" id="trash-basket--svg">
    <g clip-path="url(#clip0_95022_58)">
      <path d="M13.1249 3.75H1.87491C1.51441 3.75 1.22865 4.05416 1.25112 4.41395L1.80237 13.2383C1.86422 14.2285 2.68561 15 3.67805 15H11.3218C12.3138 15 13.135 14.2283 13.1969 13.2383L13.7487 4.41401C13.7712 4.05419 13.4855 3.75 13.1249 3.75ZM11.9493 13.1604C11.9286 13.4917 11.6536 13.75 11.3218 13.75H3.67805C3.34564 13.75 3.07063 13.4917 3.04995 13.1604L2.54018 4.99998H12.4596L11.9493 13.1604Z" fill="red"></path>
      <path d="M14.375 1.875H11.0756L11.0143 1.69066C10.6771 0.680742 9.73268 0 8.66876 0H6.33124C5.26735 0 4.32294 0.680742 3.98591 1.6902L3.92438 1.875H0.624991C0.279815 1.875 0 2.15481 0 2.49999C0 2.84517 0.279815 3.12498 0.624991 3.12498H4.375H10.625H14.375C14.7202 3.12498 15 2.84517 15 2.49999C15 2.15481 14.7202 1.875 14.375 1.875ZM5.26483 1.875C5.47806 1.49423 5.88326 1.25001 6.33127 1.25001H8.66879C9.11668 1.25001 9.52177 1.49411 9.73517 1.875H5.26483Z" fill="red"></path>
      <path d="M4.37499 12.5H10.625C10.9702 12.5 11.25 12.2202 11.25 11.875C11.25 11.5299 10.9702 11.25 10.625 11.25H4.37499C4.02981 11.25 3.75 11.5298 3.75 11.875C3.75 12.2202 4.02981 12.5 4.37499 12.5Z" fill="red"></path>
      <path d="M4.37499 10H10.625C10.9702 10 11.25 9.72018 11.25 9.37501C11.25 9.02983 10.9702 8.75002 10.625 8.75002H4.37499C4.02981 8.75002 3.75 9.02983 3.75 9.37501C3.75 9.72018 4.02981 10 4.37499 10Z" fill="red"></path>
    </g>
    <defs>
      <clipPath id="clip0_95022_58">
        <rect width="15" height="15" fill="white"></rect>
      </clipPath>
    </defs>
  </symbol>
  <symbol fill="none" xmlns="http://www.w3.org/2000/svg" viewBox="0 0 61 61" id="moon--svg">
    <path d="M34.1517 6.48138C34.8548 6.34075 35.9611 7.36263 36.7298 7.90638C37.4986 8.45013 40.4798 10.372 40.6486 11.7783C40.8173 13.1845 39.8611 15.172 41.5861 16.2314C43.3111 17.2908 45.5705 18.8658 45.5705 20.2158C45.5705 21.5658 44.633 24.2845 45.9267 25.222C47.2205 26.1595 48.1205 26.2533 48.683 28.0345C49.2455 29.8158 47.7455 33.2845 47.6517 33.8376C47.6625 34.137 47.7327 34.4313 47.8582 34.7033C47.9837 34.9753 48.1621 35.2196 48.383 35.422C48.8606 35.914 49.154 36.5556 49.2137 37.2387C49.2735 37.9217 49.096 38.6045 48.7111 39.172C47.5111 41.047 46.1611 42.247 46.4236 42.8376C46.8043 43.8982 46.8043 45.0583 46.4236 46.1189C45.9267 47.0564 42.4673 50.272 40.6205 51.8001C38.7736 53.3283 38.5955 53.6751 37.9298 53.8533C33.6105 54.7792 29.1037 54.1761 25.1798 52.147C19.208 48.8939 14.7548 44.647 12.6173 38.2345C10.4798 31.822 10.8548 27.8658 12.3173 23.4408C13.7798 19.0158 17.6236 14.647 20.9892 11.8064C24.3548 8.96575 31.4798 6.96888 34.1517 6.48138Z" fill="#1D1D1B"></path>
    <path d="M34.2642 7.77512C34.4424 7.77512 37.4611 10.8501 38.1924 11.2907C38.9236 11.7314 39.1299 12.022 39.1299 12.5751C38.951 13.5012 38.8912 14.4464 38.9517 15.3876C39.001 15.7465 39.0794 16.1008 39.1861 16.447C38.6212 17.0264 38.305 17.8035 38.3049 18.6126C38.3049 20.0189 38.633 20.7782 39.5986 20.9001C39.9753 20.9156 40.3505 20.8442 40.6952 20.6914C41.0398 20.5385 41.3447 20.3084 41.5861 20.0189C41.8779 19.6967 42.0984 19.3165 42.233 18.9032C42.233 18.9032 43.6955 19.9626 43.8174 20.6657C43.9392 21.3689 43.0486 24.8189 43.8174 25.4657C44.5861 26.1126 47.0424 28.0439 47.0986 28.7751C47.0705 29.5213 46.9508 30.2612 46.7424 30.9782C46.3122 30.9926 45.8915 31.1088 45.515 31.3174C45.1385 31.526 44.8169 31.8211 44.5767 32.1782C43.847 33.175 43.4294 34.3659 43.3767 35.6001C43.3767 36.4532 43.1142 37.3064 43.8736 38.4126C44.633 39.5189 44.9892 39.622 45.308 39.7907C45.6267 39.9595 46.1049 40.1751 46.1049 40.1751C45.5132 40.8753 44.9919 41.6321 44.5486 42.4345C44.5486 42.7814 44.9892 44.4782 44.8111 45.0407C44.6457 45.4385 44.3849 45.7895 44.0517 46.0626C44.0517 46.0626 43.9299 45.3314 42.8799 45.4814C42.468 45.5301 42.0731 45.6741 41.7265 45.9019C41.3799 46.1297 41.0911 46.4351 40.883 46.7939C40.7424 47.2064 41.5017 48.8189 41.2111 49.1939C40.2466 50.446 38.9112 51.3614 37.3955 51.8095C35.5734 52.0734 33.7272 52.13 31.8924 51.9782C31.1049 51.8939 30.4017 51.8657 30.4017 51.8657C29.7415 50.4726 28.9033 49.1711 27.908 47.9939C26.8861 47.122 25.2736 47.2814 24.5424 47.2814C23.5916 47.4091 22.6329 47.4686 21.6736 47.4595C18.9006 45.0625 16.6645 42.1075 15.1111 38.7876C12.9015 34.3567 12.4009 29.2673 13.7049 24.4907C15.0267 19.6626 19.4142 15.1157 22.6111 12.7157C26.1839 10.4138 30.1256 8.74263 34.2642 7.77512Z" fill="#E6E4DA"></path>
    <path d="M39.7768 17.4689C40.2651 17.7317 40.724 18.046 41.1455 18.4064C41.0248 18.8464 40.796 19.2492 40.4799 19.5782C40.0674 19.8689 39.5424 20.197 39.2424 19.7845C38.9424 19.372 39.1861 17.5532 39.7768 17.4689Z" fill="white"></path>
    <path d="M28.8455 19.4282C31.1892 19.0907 33.1486 21.0407 33.9455 24.0595C34.1245 24.7419 34.1561 25.4546 34.0382 26.1501C33.9204 26.8457 33.6558 27.5082 33.262 28.0936C32.8682 28.6789 32.3543 29.1737 31.7544 29.545C31.1546 29.9163 30.4825 30.1556 29.783 30.247C28.473 30.4379 27.1374 30.1685 26.0039 29.4847C24.8704 28.8008 24.0092 27.7449 23.5673 26.497C22.6017 23.947 24.0361 20.0939 28.8455 19.4282Z" fill="#1D1D1B"></path>
    <path d="M28.8174 21.0314C30.1674 20.947 31.8642 21.7064 32.3049 24.2564C32.7455 26.8064 31.3674 28.2689 29.8392 28.5033C28.3111 28.7376 26.1455 28.5033 25.4142 26.2439C24.683 23.9845 25.4799 21.1908 28.8174 21.0314Z" fill="white"></path>
    <path d="M20.1455 18.322C20.3611 18.2564 20.8205 19.0251 20.8205 19.0251C19.7074 19.9162 18.8234 21.0605 18.2424 22.3626C17.3049 24.5001 17.3049 25.5595 17.0986 25.672C16.8924 25.7845 16.2736 25.7282 16.2736 25.5876C16.3892 24.2638 16.7992 22.9826 17.4736 21.8376C18.5611 19.9907 19.2361 18.5845 20.1455 18.322Z" fill="#1D1D1B"></path>
    <path d="M18.2143 31.8501C19.6393 31.4189 20.2018 32.8533 20.1455 33.8189C20.1203 34.0914 20.0323 34.3544 19.8883 34.5872C19.7444 34.82 19.5485 35.0164 19.316 35.1608C19.0835 35.3052 18.8207 35.3938 18.5482 35.4196C18.2758 35.4454 18.001 35.4077 17.7455 35.3095C16.5361 34.7845 15.5424 32.6751 18.2143 31.8501Z" fill="#1D1D1B"></path>
    <path d="M18.2424 32.7032C18.7393 32.4126 19.3861 33.022 19.2361 33.697C19.2237 33.8379 19.1764 33.9735 19.0985 34.0915C19.0207 34.2096 18.9147 34.3065 18.7901 34.3734C18.6655 34.4404 18.5262 34.4753 18.3848 34.475C18.2434 34.4748 18.1042 34.4394 17.9799 34.372C17.3892 34.1564 17.0424 33.4064 18.2424 32.7032Z" fill="white"></path>
    <path d="M46.1611 31.822C46.358 31.7001 46.5736 32.0845 46.4517 32.4407C46.3298 32.797 45.5705 33.6407 45.8986 34.6345C46.2267 35.6282 47.1548 36.4251 47.2392 37.2126C47.3236 38.0001 47.3892 38.1501 47.183 38.5626C46.9767 38.9751 46.8923 39.322 46.658 39.322C46.162 39.2493 45.6954 39.0422 45.3087 38.7233C44.922 38.4043 44.63 37.9857 44.4642 37.5126C44.0236 36.0314 43.9298 33.2189 46.1611 31.822Z" fill="white"></path>
    <path d="M41.8486 46.7939C42.0181 46.59 42.2348 46.4305 42.4798 46.3292C42.7249 46.2279 42.9909 46.1879 43.2549 46.2126C43.4049 46.297 43.5268 46.2126 43.4611 46.447C43.1933 46.9489 42.8591 47.4125 42.4674 47.8251C42.1768 48.0876 42.0268 48.4345 41.9143 48.2282C41.7299 47.7715 41.7067 47.2655 41.8486 46.7939Z" fill="white"></path>
    <path d="M23.333 48.5282C23.9206 48.2676 24.5615 48.1496 25.2035 48.1838C25.8454 48.218 26.4701 48.4035 27.0267 48.7251C28.2549 49.6626 29.5767 51.7439 29.2299 51.8095C27.9073 51.6733 26.6483 51.1736 25.5924 50.3657C23.8955 49.1564 23.2486 48.6689 23.333 48.5282Z" fill="white"></path>
    <path d="M23.8392 38.647C24.0736 38.8251 25.4798 41.4595 25.3017 41.6376C25.1236 41.8158 25.1236 41.9283 24.9736 41.8439C24.2977 40.9721 23.7192 40.029 23.2486 39.0314C23.333 38.8439 23.8392 38.647 23.8392 38.647Z" fill="#1D1D1B"></path>
    <path d="M22.0767 39.5845C22.8071 40.6735 23.408 41.8439 23.8674 43.072C23.7174 43.222 23.5392 43.4564 23.4549 43.372C22.6764 42.2314 21.9899 41.0308 21.4017 39.7814C21.596 39.6372 21.8354 39.5674 22.0767 39.5845Z" fill="#1D1D1B"></path>
    <path d="M19.4142 40.3532C19.4142 40.1564 20.3517 40.0532 20.4924 40.1751C21.1338 41.2907 21.6826 42.4572 22.133 43.6626C22.0767 43.8032 22.0486 44.0376 21.8142 43.9251C20.9028 42.8133 20.0992 41.6173 19.4142 40.3532Z" fill="#1D1D1B"></path>
  </symbol>
  <symbol fill="none" xmlns="http://www.w3.org/2000/svg" viewBox="0 0 60 60" id="sun--svg">
    <g clip-path="url(#clip0_95021_18)">
      <path d="M30.2781 52.5143C28.8973 52.5143 27.7777 52.6778 27.7777 54.6396C27.7777 55.5924 28.8972 60 30.2781 60C31.6591 60 32.7785 55.5924 32.7785 54.6396C32.7785 52.6779 31.659 52.5143 30.2781 52.5143Z" fill="#BFB61E"></path>
      <path d="M41.3265 49.5539C40.1306 50.2443 39.2429 50.9456 40.2238 52.6446C40.7002 53.4697 43.8735 56.7271 45.0694 56.0366C46.2653 55.3461 45.0309 50.9693 44.5546 50.1442C43.5737 48.4453 42.5224 48.8634 41.3265 49.5539Z" fill="#BFB61E"></path>
      <path d="M52.5054 40.3631C50.8064 39.3823 50.1051 40.27 49.4146 41.4659C48.7241 42.6618 48.306 43.7131 50.005 44.6939C50.8301 45.1703 55.2069 46.4046 55.8974 45.2087C56.5879 44.0128 53.3305 40.8395 52.5054 40.3631Z" fill="#BFB61E"></path>
      <path d="M54.5004 27.917C52.5386 27.917 52.3751 29.0365 52.3751 30.4174C52.3751 31.7984 52.5387 32.9177 54.5004 32.9177C55.4532 32.9177 59.8608 31.7982 59.8608 30.4174C59.8608 29.0364 55.4532 27.917 54.5004 27.917Z" fill="#BFB61E"></path>
      <path d="M50.0051 16.1408C48.3061 17.1217 48.7242 18.173 49.4147 19.3689C50.1052 20.5646 50.8065 21.4525 52.5055 20.4716C53.3306 19.9952 56.588 16.8219 55.8975 15.626C55.2069 14.4301 50.8301 15.6645 50.0051 16.1408Z" fill="#BFB61E"></path>
      <path d="M19.2296 49.5539C18.0337 48.8634 16.9824 48.4453 16.0015 50.1443C15.5251 50.9694 14.2908 55.3462 15.4867 56.0367C16.6826 56.7272 19.8558 53.4698 20.3323 52.6447C21.3131 50.9457 20.4255 50.2444 19.2296 49.5539Z" fill="#BFB61E"></path>
      <path d="M49.714 30.4173C49.714 25.0502 47.5386 20.1912 44.0214 16.674L16.5349 44.1606C20.052 47.6777 24.9111 49.8533 30.2781 49.8533C41.0123 49.8533 49.714 41.1514 49.714 30.4173Z" fill="#BFB61E"></path>
      <path d="M19.2317 11.278C18.043 11.9641 16.9992 12.3797 16.0328 10.7368C16.0232 10.7271 16.0135 10.7079 16.0037 10.6886C15.5206 9.86718 14.2933 5.48929 15.4819 4.79343C16.3806 4.27148 18.4198 6.0014 19.5505 7.22871C19.937 7.63464 20.2173 7.98257 20.3333 8.18543C21.3094 9.8864 20.43 10.5919 19.2317 11.278Z" fill="#C6BA56"></path>
      <path d="M32.7807 6.19464V6.26226C32.7517 8.15648 31.6403 8.32077 30.2777 8.32077C29.1857 8.32077 28.2579 8.21448 27.9197 7.20948C27.8231 6.94851 27.7747 6.6103 27.7747 6.19464C27.7747 5.60519 28.2 3.70136 28.8475 2.32898C29.263 1.47855 29.7559 0.831085 30.2777 0.831085C30.4323 0.831085 30.587 0.889093 30.7319 0.995382C31.9014 1.77819 32.7807 5.34421 32.7807 6.19464Z" fill="#C6BA56"></path>
      <path d="M11.1428 19.3669C10.4469 20.5652 9.75115 21.4543 8.05018 20.4685C7.58635 20.2076 6.35893 19.0866 5.48916 17.9462C5.47955 17.9365 5.46983 17.9269 5.46983 17.9171C4.80303 17.0378 4.35842 16.1487 4.65795 15.6267C5.35381 14.4283 9.72197 15.6654 10.5531 16.1389C10.698 16.2259 10.8333 16.3128 10.9493 16.3998C12.1768 17.3085 11.7709 18.2748 11.1428 19.3669Z" fill="#C6BA56"></path>
      <path d="M8.18554 30.413C8.18554 31.766 8.03086 32.8774 6.1657 32.916H6.05941C5.14136 32.916 1.00511 31.8722 0.715076 30.5579C0.705466 30.5579 0.705466 30.5579 0.705466 30.5579C0.705466 30.5096 0.69574 30.4614 0.69574 30.413C0.69574 29.8814 1.36254 29.3789 2.2323 28.9827C3.60469 28.3352 5.47945 27.9197 6.05929 27.9197C6.61019 27.9197 7.01601 28.0066 7.31566 28.1613C8.09859 28.5671 8.18554 29.4273 8.18554 30.413Z" fill="#C6BA56"></path>
      <path d="M8.05077 40.3631C7.22566 40.8395 3.96831 44.0128 4.65878 45.2087C5.34925 46.4046 9.72609 45.1703 10.5511 44.6939C12.2501 43.713 11.8319 42.6617 11.1415 41.4658C10.4511 40.2699 9.74964 39.3823 8.05077 40.3631Z" fill="#C6BA56"></path>
      <path d="M41.3265 11.2808C42.5224 11.9713 43.5737 12.3894 44.5546 10.6904C45.0309 9.86531 46.2653 5.48847 45.0694 4.798C43.8735 4.10754 40.7002 7.36488 40.2238 8.19C39.2429 9.88898 40.1306 10.5903 41.3265 11.2808Z" fill="#C6BA56"></path>
      <path d="M30.2781 10.9814C19.5439 10.9814 10.8422 19.6831 10.8422 30.4173C10.8422 35.7844 13.0175 40.6433 16.5348 44.1606L44.0213 16.674C40.5041 13.1567 35.6451 10.9814 30.2781 10.9814Z" fill="#C6BA56"></path>
      <path d="M29.579 51.6755C28.1982 51.6755 27.0786 51.839 27.0786 53.8008C27.0786 54.7536 28.1981 59.1612 29.579 59.1612C30.96 59.1612 32.0794 54.7536 32.0794 53.8008C32.0794 51.8391 30.9599 51.6755 29.579 51.6755Z" fill="#EFE748"></path>
      <path d="M40.6275 48.7151C39.4316 49.4056 38.5439 50.1069 39.5248 51.8059C40.0011 52.631 43.1745 55.8884 44.3703 55.1979C45.5662 54.5074 44.3319 50.1306 43.8555 49.3055C42.8747 47.6065 41.8234 48.0246 40.6275 48.7151Z" fill="#EFE748"></path>
      <path d="M51.8064 39.5243C50.1074 38.5434 49.406 39.4311 48.7156 40.627C48.0251 41.8229 47.607 42.8742 49.3059 43.8551C50.1311 44.3315 54.5079 45.5658 55.1984 44.3699C55.8888 43.174 52.6315 40.0007 51.8064 39.5243Z" fill="#EFE748"></path>
      <path d="M53.8013 27.0781C51.8395 27.0781 51.676 28.1976 51.676 29.5785C51.676 30.9594 51.8395 32.0788 53.8013 32.0788C54.7541 32.0788 59.1617 30.9593 59.1617 29.5785C59.1616 28.1976 54.7541 27.0781 53.8013 27.0781Z" fill="#EFE748"></path>
      <path d="M49.3059 15.302C47.607 16.2829 48.025 17.3342 48.7155 18.5301C49.406 19.726 50.1073 20.6136 51.8063 19.6328C52.6314 19.1564 55.8888 15.9831 55.1983 14.7872C54.5079 13.5913 50.131 14.8255 49.3059 15.302Z" fill="#EFE748"></path>
      <path d="M18.5305 48.7151C17.3346 48.0246 16.2833 47.6065 15.3024 49.3055C14.8261 50.1306 13.5917 54.5074 14.7877 55.1979C15.9836 55.8884 19.1568 52.631 19.6333 51.8059C20.6141 50.1068 19.7264 49.4056 18.5305 48.7151Z" fill="#EFE748"></path>
      <path d="M49.0149 29.5785C49.0149 24.2114 46.8395 19.3524 43.3223 15.8352L15.8358 43.3218C19.353 46.8389 24.212 49.0145 29.579 49.0145C40.3132 49.0145 49.0149 40.3126 49.0149 29.5785Z" fill="#EFE748"></path>
      <path d="M18.5262 10.4373C17.6274 10.9591 16.806 11.3264 16.0328 10.737C15.7815 10.5533 15.5399 10.2634 15.2983 9.84785C14.8247 9.02637 13.5877 4.64859 14.786 3.96234C15.9361 3.29555 18.8837 6.25277 19.5505 7.22883C19.5892 7.27711 19.6181 7.31578 19.6375 7.35445C20.6137 9.04558 19.7246 9.75105 18.5262 10.4373Z" fill="#FAF2AF"></path>
      <path d="M32.0753 5.35395C32.0753 5.42156 32.0753 5.4893 32.0655 5.5473C31.9979 7.32551 30.9155 7.48008 29.5819 7.48008C29.0794 7.48008 28.6154 7.46074 28.2192 7.33512C28.1129 7.30617 28.0162 7.25789 27.9197 7.20949C27.6007 7.0452 27.3494 6.77461 27.2142 6.33973C27.2045 6.33 27.2142 6.33 27.2142 6.33C27.1273 6.06902 27.0789 5.74055 27.0789 5.35395C27.0789 4.78383 27.4848 2.95723 28.1129 1.59457C28.4898 0.773086 28.9537 0.116016 29.4466 0.0193359C29.4949 0.00972656 29.5336 0 29.5819 0C29.9975 0 30.3936 0.40582 30.7319 0.995391C30.848 1.18863 30.9542 1.40133 31.0605 1.63324C31.6791 2.98617 32.0753 4.79344 32.0753 5.35395Z" fill="#FAF2AF"></path>
      <path d="M10.4469 18.5262C9.75116 19.7245 9.0553 20.6136 7.35433 19.6376C7.0064 19.4346 6.2237 18.7581 5.48917 17.9463C5.47956 17.9366 5.46983 17.927 5.46983 17.9173C4.46472 16.8156 3.56601 15.4723 3.96222 14.7861C4.64835 13.5878 9.02624 14.8248 9.84761 15.2984C10.4564 15.6559 10.8043 16.0232 10.9493 16.4C11.2104 17.0668 10.8818 17.7724 10.4469 18.5262Z" fill="#FAF2AF"></path>
      <path d="M7.48008 29.5819C7.48008 30.9639 7.31578 32.0753 5.35406 32.0753H5.325C4.73555 32.0655 2.96695 31.6789 1.63324 31.0701C1.29504 30.9058 0.976055 30.7416 0.715078 30.5579C0.705469 30.5579 0.705469 30.5579 0.705469 30.5579C0.270586 30.2584 0 29.9298 0 29.5819C0 29.5432 0 29.4949 0.0193359 29.4562C0.106289 28.9827 0.686133 28.5575 1.43027 28.1805C2.81227 27.5233 4.76438 27.0789 5.35395 27.0789C5.57625 27.0789 5.77922 27.0982 5.96285 27.1271C6.75527 27.2432 7.13215 27.6296 7.31578 28.1612C7.36406 28.2868 7.39312 28.4318 7.41246 28.5767C7.47047 28.8764 7.48008 29.2243 7.48008 29.5819Z" fill="#FAF2AF"></path>
      <path d="M9.84773 43.8559C9.23882 44.2134 6.63925 44.9866 5.07362 44.8609C4.88999 44.8512 4.72569 44.8222 4.57112 44.7739C4.29081 44.6966 4.07823 44.5612 3.96234 44.368C3.85593 44.1844 3.83671 43.9427 3.89472 43.6819C4.22331 42.2515 6.64898 39.9225 7.35444 39.5263C7.70237 39.3233 8.01163 39.1977 8.28222 39.1494C9.20999 38.9464 9.74155 39.4973 10.2344 40.2704C10.3021 40.3864 10.3794 40.5023 10.447 40.628C10.6887 41.0628 10.911 41.4688 10.9979 41.865C11.1621 42.5705 10.9398 43.2277 9.84773 43.8559Z" fill="#FAF2AF"></path>
      <path d="M40.6275 10.4419C41.8234 11.1324 42.8747 11.5505 43.8555 9.8515C44.3319 9.02638 45.5662 4.64954 44.3703 3.95908C43.1745 3.26861 40.0011 6.52595 39.5248 7.35107C38.5439 9.05017 39.4316 9.75154 40.6275 10.4419Z" fill="#FAF2AF"></path>
      <path d="M43.3244 15.8395L43.2373 15.9265L42.8411 16.3227L15.8395 43.3243C15.5496 43.0344 15.279 42.7445 15.0085 42.4352C14.2837 41.6139 13.6265 40.7344 13.0466 39.797C11.2105 36.83 10.1474 33.3316 10.1474 29.582C10.1474 18.8451 18.8452 10.1474 29.582 10.1474C33.0901 10.1474 36.3856 11.0751 39.2365 12.718C40.7344 13.5684 42.1067 14.6218 43.3244 15.8395Z" fill="#FAF2AF"></path>
    </g>
    <defs>
      <clipPath id="clip0_95021_18">
        <rect width="60" height="60" fill="white"></rect>
      </clipPath>
    </defs>
  </symbol>
</svg>